<?xml version="1.0" encoding="UTF-8"?>
<svg id="Layer_1" data-name="Layer 1" xmlns="http://www.w3.org/2000/svg" viewBox="0 0 16 16">
  <defs>
    <style>
      .cls-1 {
        fill: #eb6927;
      }

      .cls-1, .cls-2 {
        stroke-width: 0px;
      }

      .cls-2 {
        fill: #fff;
      }
    </style>
  </defs>
  <rect class="cls-2" width="16" height="16"/>
  <g>
    <path class="cls-1" d="M13.89,8.97c-.4.45-1.08.55-1.41-.01-.02-.03-.06-.03-.09,0,0,0-.01.02-.02.03-.16.22-.35.38-.62.41-.21.02-.36-.09-.43-.3-.08-.24-.05-.49-.03-.74,0-.1.03-.19.02-.29,0-.03,0-.05-.02-.08-.01-.02-.05-.05-.09-.04-.04,0-.08.08-.09.08-.07.13-.13.24-.18.39-.07.21-.13.42-.19.63,0,.02-.02.06-.03.09-.06.11-.13.15-.23.14-.11-.02-.15-.11-.15-.21-.02-.19-.02-.38-.03-.57,0-.17,0-.33-.01-.5,0-.09-.04-.1-.06-.1s-.06,0-.09.07c-.07.2-.14.39-.2.59-.05.16-.07.33-.1.5-.03.14-.13.23-.23.22-.06,0-.1-.04-.14-.14-.02-.03-.06-.04-.08-.01-.15.16-.34.25-.57.24-.21-.01-.35-.14-.42-.43-.01-.04-.06-.05-.09-.02,0,0-.01.02-.02.03-.1.12-.22.21-.37.26-.19.06-.35,0-.49-.14-.01-.01-.03-.03-.04-.05,0,0,0,0-.01,0-.06.13-.11.27-.18.4-.1.19-.23.36-.42.44-.04.02-.09.03-.13.04-.37.06-.58-.17-.51-.57.02-.12.04-.23.06-.34.02-.14-.02-.24-.12-.29-.03-.01-.06,0-.07.03-.02.06-.04.12-.07.17-.14.28-.34.48-.66.48-.26,0-.41-.12-.48-.39,0,0,0-.02,0-.02,0-.04-.06-.05-.09-.02-.01.01-.02.02-.03.03-.11.08-.22.18-.35.24-.23.11-.51-.05-.62-.33-.17-.44-.01-1.02.34-1.3.29-.23.54-.2.74.08.02.03.07.02.09-.01.02-.04.04-.08.06-.12.05-.09.12-.16.23-.17.13-.01.2.05.18.19-.03.19-.07.37-.09.55-.04.28-.08.57-.03.86.03.15.09.2.22.13.09-.05.18-.12.24-.21.09-.14.15-.29.1-.49-.11-.42.08-.81.43-.95.1-.04.22-.05.32-.03.23.04.31.26.19.47-.1.18-.26.29-.43.38h0s-.03.08,0,.09c.03,0,.05.02.07.03.23.07.32.21.29.46-.02.16-.06.31-.1.46,0,.04-.02.09-.03.13-.04.21.09.21.21.16.12-.05.2-.16.26-.28.15-.29.22-.61.25-.94.03-.32.15-.59.39-.78.24-.2.54-.26.76.06.02.03.07.03.09,0,.02-.04.04-.09.06-.13.05-.1.13-.16.24-.16.11,0,.17.05.16.17,0,.1-.04.19-.05.29-.03.34-.06.68-.1,1.02,0,.02,0,.04,0,.05.03.27.16.28.34.14.18-.13.25-.34.27-.56.02-.25.03-.51.04-.76,0-.12.07-.21.16-.28.1-.07.22-.03.24.09.02.1.01.21.01.32h0c0,.06.07.07.1.03.03-.06.06-.11.1-.16.07-.09.17-.18.28-.23.17-.08.33,0,.35.21.02.16.03.32.04.46,0,.05.08.07.1.02.04-.1.09-.2.15-.31.06-.11.14-.21.23-.29.23-.2.5-.09.53.22.02.27,0,.54,0,.81,0,.15,0,.3.01.44,0,.11.06.13.15.09.23-.1.35-.3.43-.54.04-.1.04-.22.06-.33.05-.31.17-.57.42-.75.28-.19.68-.09.82.21.08.17.05.32-.07.44-.19.19-.41.31-.65.39-.07.02-.08.06-.07.12.02.34.35.53.66.37.18-.09.31-.24.38-.44.02-.06.02-.14.01-.21-.02-.53.06-1.04.24-1.54.08-.2.17-.39.33-.54.14-.13.3-.19.49-.13.18.06.28.2.3.39.01.14,0,.29-.05.43-.12.45-.4.79-.73,1.08-.11.09-.14.19-.11.33.04.17.06.35.11.52.06.2.15.22.32.12.2-.12.29-.32.36-.54.01-.04.04-.11.04-.11.03-.05.09-.07.14-.05s.06.09.05.13c-.07.35-.2.66-.51.83-.1.06-.22.1-.34.11-.21.03-.41-.12-.51-.35,0-.01-.01-.02-.02-.04-.01-.03-.06-.04-.08-.01ZM4.1,8.22c-.03.12-.03.24-.01.35,0,.06.02.11.04.16.06.18.22.22.36.11.05-.03.09-.08.12-.13.16-.27.18-.56.07-.85-.07-.19-.26-.22-.4-.08-.04.04-.07.08-.1.15,0,0,0,0,0,.01-.05.16-.05.17-.08.27ZM8.35,8.21s0,0,0,0c0-.06,0-.12-.01-.18-.02-.18-.12-.31-.24-.33-.11-.02-.24.07-.31.23-.1.23-.13.47-.08.72.01.05.03.09.05.14.06.1.17.14.27.09.07-.04.13-.09.18-.16.11-.15.14-.33.14-.51ZM14.32,7.73s.05.07.09.04c.21-.19.36-.41.46-.66.07-.17.12-.35.09-.54-.02-.13-.12-.19-.23-.12-.06.04-.13.11-.16.18-.17.34-.22.71-.24,1.11ZM12.82,8.21s.03.07.07.06c.16-.06.34-.17.43-.27.08-.09.09-.19.04-.26-.05-.07-.16-.08-.25-.01-.15.12-.23.28-.28.48ZM6.05,8.02s.04.07.07.05c.14-.07.25-.17.32-.32.02-.04.01-.12-.01-.14-.03-.03-.1-.03-.13,0-.13.06-.23.24-.25.42Z"/>
    <path class="cls-1" d="M1.42,8c0,.08,0,.18,0,.27,0,.13.01.25.02.28.01.14.04.22.06.33.09.31.31.44.6.37.5-.11.8-.46.97-.96.03-.08.05-.17.08-.25.03-.09.08-.17.18-.19.14-.02.23.07.2.21-.12.63-.37,1.17-.94,1.46-.46.23-.93.27-1.39-.02-.26-.16-.4-.43-.47-.73-.13-.54-.12-1.08.08-1.61.13-.35.35-.64.69-.78.32-.13.77-.1.97.19.1.15.17.31.18.5,0,.11-.05.21-.13.22-.07.01-.15-.05-.19-.16-.02-.05-.03-.11-.05-.16-.08-.21-.23-.27-.4-.13-.21.16-.31.4-.38.66-.03.14-.06.24-.08.5Z"/>
  </g>
</svg>