<?xml version="1.0" encoding="UTF-8"?>
<svg id="Layer_1" data-name="Layer 1" xmlns="http://www.w3.org/2000/svg" viewBox="0 0 192 192">
  <defs>
    <style>
      .cls-1 {
        fill: #eb6927;
      }

      .cls-1, .cls-2 {
        stroke-width: 0px;
      }

      .cls-2 {
        fill: #fff;
      }
    </style>
  </defs>
  <rect class="cls-1" width="192" height="192"/>
  <g>
    <path class="cls-2" d="M164.79,106.66c-4.61,5.26-12.61,6.38-16.44-.13-.22-.37-.75-.4-1-.05-.07.1-.14.2-.21.3-1.83,2.62-4.13,4.43-7.27,4.73-2.46.23-4.2-1.04-5.05-3.54-.97-2.84-.53-5.72-.34-8.59.07-1.11.31-2.22.28-3.33,0-.4,0-.54-.21-.93-.14-.26-.56-.61-1.09-.51-.45.08-.98.92-1,.94-.85,1.56-1.57,2.86-2.15,4.55-.83,2.42-1.47,4.92-2.19,7.38-.08.29-.26.75-.4,1.02-.67,1.26-1.56,1.78-2.68,1.58-1.27-.23-1.69-1.32-1.8-2.43-.21-2.21-.26-4.45-.33-6.67-.06-1.98-.03-3.89-.13-5.87-.06-1.06-.42-1.14-.72-1.14s-.71.03-1.07.84c-.84,2.3-1.64,4.49-2.31,6.85-.53,1.89-.8,3.87-1.23,5.79-.36,1.65-1.52,2.69-2.72,2.51-.69-.11-1.13-.49-1.68-1.62-.18-.38-.68-.45-.97-.15-1.81,1.89-3.92,2.98-6.6,2.81-2.47-.16-4.13-1.67-4.94-4.96-.12-.49-.75-.62-1.05-.22-.08.1-.15.2-.23.3-1.18,1.41-2.55,2.47-4.29,3-2.25.68-4.1,0-5.71-1.68-.17-.17-.32-.36-.48-.53-.02-.02-.07-.02-.15-.05-.68,1.54-1.3,3.12-2.07,4.61-1.16,2.23-2.66,4.16-4.96,5.18-.49.22-1.02.4-1.55.49-4.31.73-6.75-2-5.96-6.64.23-1.34.51-2.67.73-4.02.26-1.59-.23-2.78-1.42-3.42-.32-.17-.71-.04-.85.3-.26.67-.52,1.34-.84,1.99-1.65,3.28-3.95,5.6-7.68,5.65-3.07.04-4.83-1.39-5.62-4.56-.02-.09-.04-.18-.06-.27-.1-.47-.69-.63-1.02-.27-.12.13-.25.25-.38.35-1.31.97-2.59,2.07-4.03,2.76-2.73,1.3-5.95-.57-7.2-3.8-1.96-5.08-.13-11.91,4.02-15.15,3.37-2.63,6.28-2.34,8.69.91.27.36.83.29,1.01-.12.21-.49.43-.97.68-1.43.58-1.08,1.39-1.85,2.63-1.98,1.54-.16,2.31.58,2.08,2.23-.3,2.16-.79,4.3-1.08,6.47-.44,3.31-.94,6.64-.38,10,.3,1.78,1.11,2.38,2.61,1.57,1.05-.57,2.13-1.45,2.75-2.49.99-1.69,1.73-3.41,1.14-5.76-1.24-4.92.91-9.4,5.01-11.05,1.13-.46,2.51-.56,3.72-.36,2.68.44,3.67,3.05,2.23,5.5-1.21,2.07-3,3.41-5,4.48h0c-.45.24-.4.91.08,1.08.3.11.58.21.86.3,2.65.87,3.72,2.42,3.37,5.34-.21,1.83-.76,3.62-1.15,5.42-.11.52-.22,1.04-.32,1.57-.44,2.45,1.09,2.45,2.51,1.88,1.44-.58,2.34-1.86,3.07-3.24,1.81-3.41,2.61-7.13,2.94-10.99.32-3.74,1.8-6.84,4.53-9.15,2.81-2.38,6.27-3.07,8.88.69.26.38.84.32,1.02-.1.23-.51.46-1.02.72-1.49.62-1.12,1.51-1.86,2.8-1.92,1.31-.06,2,.59,1.88,2-.09,1.15-.45,2.26-.57,3.41-.4,3.98-.76,7.96-1.12,11.94-.02.2.04.41.06.62.29,3.18,1.88,3.21,3.96,1.66,2.05-1.52,2.88-3.95,3.12-6.52.27-2.96.31-5.94.51-8.91.09-1.4.79-2.5,1.86-3.28,1.17-.84,2.53-.37,2.82,1.1.23,1.19.16,2.45.16,3.68v.04c0,.63.84.83,1.12.27.34-.67.71-1.31,1.15-1.89.84-1.11,2.02-2.08,3.23-2.67,2.01-.98,3.81.11,4.09,2.47.22,1.85.33,3.71.41,5.37.03.62.88.78,1.13.21.49-1.13,1.06-2.38,1.71-3.58.68-1.26,1.63-2.43,2.67-3.37,2.66-2.39,5.87-1.09,6.14,2.6.23,3.11-.05,6.27-.07,9.41,0,1.73-.02,3.47.13,5.19.11,1.27.67,1.54,1.77,1.05,2.65-1.2,4.12-3.55,5.06-6.28.42-1.22.5-2.57.71-3.87.58-3.6,1.95-6.7,4.91-8.75,3.27-2.26,7.91-1.04,9.54,2.47.9,1.93.63,3.72-.85,5.18-2.19,2.17-4.82,3.57-7.64,4.51-.81.27-.92.71-.87,1.44.23,3.97,4.1,6.13,7.67,4.29,2.12-1.09,3.61-2.83,4.44-5.15.26-.73.2-1.62.17-2.43-.25-6.2.65-12.19,2.79-17.96.88-2.36,2-4.57,3.82-6.27,1.64-1.53,3.53-2.25,5.69-1.55,2.06.68,3.26,2.37,3.45,4.54.14,1.63-.12,3.39-.55,4.98-1.44,5.23-4.68,9.17-8.5,12.56-1.24,1.11-1.68,2.2-1.34,3.81.43,2.01.66,4.08,1.23,6.04.66,2.32,1.7,2.62,3.68,1.39,2.29-1.43,3.4-3.74,4.16-6.32.14-.47.47-1.29.52-1.34.37-.64,1.08-.87,1.68-.59s.73,1.01.64,1.46c-.79,4.05-2.37,7.65-5.93,9.72-1.19.69-2.59,1.11-3.94,1.3-2.46.34-4.77-1.39-5.9-4.11-.06-.15-.12-.29-.19-.44-.17-.4-.7-.49-.99-.16ZM50.47,97.98c-.33,1.35-.39,2.76-.15,4.13.11.65.24,1.26.44,1.83.74,2.08,2.54,2.6,4.23,1.34.53-.39,1.03-.91,1.38-1.48,1.88-3.15,2.09-6.53.86-9.96-.79-2.21-3.03-2.6-4.63-.93-.49.5-.79.95-1.19,1.74-.02.03-.04.09-.05.12-.59,1.84-.6,2.02-.89,3.21ZM100.11,97.88s0-.02,0-.04c-.04-.7-.05-1.4-.14-2.08-.28-2.15-1.37-3.62-2.77-3.84-1.32-.21-2.8.86-3.65,2.73-1.22,2.69-1.53,5.52-.89,8.45.12.55.34,1.11.62,1.59.7,1.18,1.97,1.65,3.12.99.79-.45,1.56-1.1,2.11-1.85,1.26-1.72,1.6-3.79,1.6-5.94ZM169.75,92.2c-.04.53.6.85.99.48,2.43-2.27,4.17-4.78,5.38-7.74.83-2.03,1.4-4.11.99-6.35-.28-1.54-1.37-2.21-2.63-1.43-.76.47-1.47,1.24-1.89,2.06-2.02,3.98-2.52,8.32-2.85,12.99ZM152.21,97.89c-.11.46.33.85.77.7,1.9-.66,3.99-1.99,4.97-3.17.9-1.08,1.06-2.21.43-3-.62-.76-1.89-.91-2.87-.15-1.79,1.38-2.74,3.31-3.31,5.62ZM73.25,95.58c-.03.46.45.78.85.58,1.64-.82,2.89-2.02,3.7-3.72.21-.43.16-1.36-.12-1.62-.32-.3-1.12-.31-1.57-.1-1.51.69-2.71,2.82-2.86,4.86Z"/>
    <path class="cls-2" d="M19.26,95.44c-.06.92-.05,2.05-.05,3.13,0,1.51.17,2.92.2,3.24.17,1.61.42,2.61.76,3.81,1.04,3.67,3.57,5.13,7.01,4.35,5.85-1.32,9.35-5.4,11.37-11.19.34-.97.56-1.98.89-2.95.37-1.09.98-1.99,2.15-2.17,1.58-.23,2.64.82,2.33,2.48-1.38,7.37-4.36,13.7-10.99,17.08-5.33,2.73-10.88,3.17-16.2-.22-3.01-1.92-4.65-5.04-5.49-8.58-1.5-6.33-1.41-12.63.91-18.74,1.56-4.12,4.03-7.46,8.04-9.11,3.73-1.53,8.93-1.2,11.31,2.26,1.19,1.73,1.97,3.65,2.07,5.82.07,1.33-.62,2.4-1.54,2.59-.84.17-1.75-.58-2.18-1.84-.21-.62-.37-1.26-.58-1.88-.88-2.47-2.69-3.12-4.66-1.57-2.42,1.91-3.65,4.71-4.39,7.68-.39,1.58-.74,2.75-.95,5.78Z"/>
  </g>
</svg>