<?xml version="1.0" encoding="UTF-8"?>
<svg id="Layer_1" data-name="Layer 1" xmlns="http://www.w3.org/2000/svg" viewBox="0 0 32 32">
  <defs>
    <style>
      .cls-1 {
        fill: #eb6927;
      }

      .cls-1, .cls-2 {
        stroke-width: 0px;
      }

      .cls-2 {
        fill: #fff;
      }
    </style>
  </defs>
  <rect class="cls-2" width="32" height="32"/>
  <g>
    <path class="cls-1" d="M27.81,18.13c-.77.88-2.12,1.07-2.76-.02-.04-.06-.13-.07-.17,0-.01.02-.02.03-.04.05-.31.44-.69.74-1.22.79-.41.04-.7-.17-.85-.59-.16-.48-.09-.96-.06-1.44.01-.19.05-.37.05-.56,0-.07,0-.09-.04-.16-.02-.04-.09-.1-.18-.09-.08.01-.16.15-.17.16-.14.26-.26.48-.36.76-.14.41-.25.83-.37,1.24-.01.05-.04.13-.07.17-.11.21-.26.3-.45.27-.21-.04-.28-.22-.3-.41-.04-.37-.04-.75-.06-1.12-.01-.33,0-.65-.02-.99,0-.18-.07-.19-.12-.19s-.12,0-.18.14c-.14.39-.28.75-.39,1.15-.09.32-.14.65-.21.97-.06.28-.26.45-.46.42-.12-.02-.19-.08-.28-.27-.03-.06-.11-.08-.16-.03-.3.32-.66.5-1.11.47-.42-.03-.69-.28-.83-.83-.02-.08-.13-.1-.18-.04-.01.02-.03.03-.04.05-.2.24-.43.42-.72.5-.38.11-.69,0-.96-.28-.03-.03-.05-.06-.08-.09,0,0-.01,0-.02,0-.11.26-.22.52-.35.78-.2.38-.45.7-.83.87-.08.04-.17.07-.26.08-.72.12-1.13-.34-1-1.11.04-.23.09-.45.12-.67.04-.27-.04-.47-.24-.57-.05-.03-.12,0-.14.05-.04.11-.09.23-.14.33-.28.55-.66.94-1.29.95-.52,0-.81-.23-.94-.77,0-.01,0-.03-.01-.04-.02-.08-.12-.11-.17-.05-.02.02-.04.04-.06.06-.22.16-.43.35-.68.46-.46.22-1-.1-1.21-.64-.33-.85-.02-2,.68-2.55.57-.44,1.06-.39,1.46.15.05.06.14.05.17-.02.04-.08.07-.16.11-.24.1-.18.23-.31.44-.33.26-.03.39.1.35.37-.05.36-.13.72-.18,1.09-.07.56-.16,1.11-.06,1.68.05.3.19.4.44.26.18-.1.36-.24.46-.42.17-.28.29-.57.19-.97-.21-.83.15-1.58.84-1.86.19-.08.42-.09.62-.06.45.07.62.51.38.92-.2.35-.5.57-.84.75h0c-.08.04-.07.15.01.18.05.02.1.03.15.05.44.15.62.41.57.9-.04.31-.13.61-.19.91-.02.09-.04.18-.05.26-.07.41.18.41.42.32.24-.1.39-.31.52-.54.3-.57.44-1.2.49-1.85.05-.63.3-1.15.76-1.54.47-.4,1.05-.52,1.49.12.04.06.14.05.17-.02.04-.09.08-.17.12-.25.1-.19.25-.31.47-.32.22,0,.34.1.32.34-.02.19-.08.38-.1.57-.07.67-.13,1.34-.19,2.01,0,.03,0,.07,0,.1.05.53.32.54.67.28.34-.26.48-.66.52-1.1.04-.5.05-1,.09-1.5.02-.24.13-.42.31-.55.2-.14.43-.06.47.18.04.2.03.41.03.62h0c0,.11.14.15.19.05.06-.11.12-.22.19-.32.14-.19.34-.35.54-.45.34-.16.64.02.69.42.04.31.05.62.07.9,0,.1.15.13.19.03.08-.19.18-.4.29-.6.11-.21.27-.41.45-.57.45-.4.99-.18,1.03.44.04.52,0,1.05-.01,1.58,0,.29,0,.58.02.87.02.21.11.26.3.18.44-.2.69-.6.85-1.06.07-.2.08-.43.12-.65.1-.6.33-1.13.82-1.47.55-.38,1.33-.17,1.6.41.15.32.1.62-.14.87-.37.36-.81.6-1.28.76-.14.05-.15.12-.15.24.04.67.69,1.03,1.29.72.36-.18.61-.48.74-.87.04-.12.03-.27.03-.41-.04-1.04.11-2.05.47-3.02.15-.4.34-.77.64-1.05.27-.26.59-.38.95-.26.35.11.55.4.58.76.02.27-.02.57-.09.84-.24.88-.79,1.54-1.43,2.11-.21.19-.28.37-.23.64.07.34.11.68.21,1.01.11.39.29.44.62.23.38-.24.57-.63.7-1.06.02-.08.08-.22.09-.22.06-.11.18-.15.28-.1s.12.17.11.25c-.13.68-.4,1.28-1,1.63-.2.12-.44.19-.66.22-.41.06-.8-.23-.99-.69-.01-.02-.02-.05-.03-.07-.03-.07-.12-.08-.17-.03ZM8.61,16.67c-.06.23-.06.46-.03.69.02.11.04.21.07.31.12.35.43.44.71.22.09-.07.17-.15.23-.25.32-.53.35-1.1.14-1.67-.13-.37-.51-.44-.78-.16-.08.08-.13.16-.2.29,0,0,0,.02,0,.02-.1.31-.1.34-.15.54ZM16.94,16.65s0,0,0,0c0-.12,0-.23-.02-.35-.05-.36-.23-.61-.46-.65-.22-.03-.47.14-.61.46-.2.45-.26.93-.15,1.42.02.09.06.19.1.27.12.2.33.28.52.17.13-.08.26-.18.35-.31.21-.29.27-.64.27-1ZM28.64,15.7c0,.09.1.14.17.08.41-.38.7-.8.9-1.3.14-.34.24-.69.17-1.07-.05-.26-.23-.37-.44-.24-.13.08-.25.21-.32.35-.34.67-.42,1.4-.48,2.18ZM25.7,16.65c-.02.08.06.14.13.12.32-.11.67-.33.84-.53.15-.18.18-.37.07-.5-.1-.13-.32-.15-.48-.03-.3.23-.46.56-.56.94ZM12.43,16.27c0,.08.07.13.14.1.28-.14.49-.34.62-.62.03-.07.03-.23-.02-.27-.05-.05-.19-.05-.26-.02-.25.12-.46.47-.48.82Z"/>
    <path class="cls-1" d="M3.37,16.24c-.01.16,0,.34,0,.53,0,.25.03.49.03.54.03.27.07.44.13.64.17.62.6.86,1.18.73.98-.22,1.57-.91,1.91-1.88.06-.16.09-.33.15-.49.06-.18.16-.33.36-.36.27-.04.44.14.39.42-.23,1.24-.73,2.3-1.85,2.87-.9.46-1.83.53-2.72-.04-.51-.32-.78-.85-.92-1.44-.25-1.06-.24-2.12.15-3.15.26-.69.68-1.25,1.35-1.53.63-.26,1.5-.2,1.9.38.2.29.33.61.35.98.01.22-.1.4-.26.43-.14.03-.29-.1-.37-.31-.04-.1-.06-.21-.1-.32-.15-.41-.45-.52-.78-.26-.41.32-.61.79-.74,1.29-.07.26-.12.46-.16.97Z"/>
  </g>
</svg>