<?xml version="1.0" encoding="UTF-8"?>
<svg id="Layer_1" data-name="Layer 1" xmlns="http://www.w3.org/2000/svg" viewBox="0 0 192 192">
  <defs>
    <style>
      .cls-1 {
        fill: #eb6927;
      }

      .cls-1, .cls-2 {
        stroke-width: 0px;
      }

      .cls-2 {
        fill: #fff;
      }
    </style>
  </defs>
  <rect class="cls-1" width="192" height="192"/>
  <path class="cls-2" d="M69.29,94.72c-.22,3.23-.19,7.15-.17,10.94.03,5.25.59,10.19.71,11.31.6,5.63,1.45,9.1,2.64,13.3,3.63,12.8,12.45,17.89,24.46,15.19,20.44-4.6,32.65-18.86,39.68-39.07,1.18-3.37,1.96-6.9,3.11-10.28,1.3-3.82,3.42-6.95,7.52-7.56,5.52-.81,9.21,2.85,8.12,8.67-4.8,25.71-15.21,47.8-38.35,59.63-18.62,9.52-37.98,11.07-56.55-.77-10.5-6.7-16.25-17.58-19.17-29.93-5.23-22.08-4.93-44.07,3.16-65.4,5.45-14.37,14.07-26.06,28.05-31.79,13.03-5.34,31.17-4.19,39.48,7.89,4.14,6.02,6.86,12.75,7.24,20.31.23,4.63-2.18,8.37-5.39,9.03-2.94.6-6.11-2.04-7.61-6.44-.74-2.16-1.28-4.41-2.04-6.56-3.06-8.6-9.39-10.88-16.26-5.48-8.45,6.65-12.74,16.45-15.32,26.82-1.37,5.5-2.59,9.61-3.32,20.18Z"/>
</svg>