<?xml version="1.0" encoding="UTF-8"?>
<svg id="Layer_1" data-name="Layer 1" xmlns="http://www.w3.org/2000/svg" viewBox="0 0 16 16">
  <defs>
    <style>
      .cls-1 {
        fill: #eb6927;
      }

      .cls-1, .cls-2 {
        stroke-width: 0px;
      }

      .cls-2 {
        fill: #fff;
      }
    </style>
  </defs>
  <rect class="cls-1" width="16" height="16"/>
  <path class="cls-2" d="M5.83,7.96c-.02.26-.01.57-.01.87,0,.42.05.81.06.9.05.45.12.72.21,1.06.29,1.02.99,1.42,1.94,1.21,1.62-.36,2.59-1.5,3.15-3.1.09-.27.16-.55.25-.82.1-.3.27-.55.6-.6.44-.06.73.23.64.69-.38,2.04-1.21,3.79-3.04,4.73-1.48.76-3.01.88-4.49-.06-.83-.53-1.29-1.4-1.52-2.38-.42-1.75-.39-3.5.25-5.19.43-1.14,1.12-2.07,2.23-2.52,1.03-.42,2.47-.33,3.13.63.33.48.54,1.01.57,1.61.02.37-.17.66-.43.72-.23.05-.48-.16-.6-.51-.06-.17-.1-.35-.16-.52-.24-.68-.75-.86-1.29-.43-.67.53-1.01,1.31-1.22,2.13-.11.44-.21.76-.26,1.6Z"/>
</svg>