<?xml version="1.0" encoding="UTF-8"?>
<svg id="Layer_1" data-name="Layer 1" xmlns="http://www.w3.org/2000/svg" viewBox="0 0 19.94 23.46">
  <defs>
    <style>
      .cls-1 {
        fill: #eb6927;
        stroke-width: 0px;
      }
    </style>
  </defs>
  <path class="cls-1" d="M5.33,11.65c-.04.55-.03,1.21-.03,1.85,0,.89.1,1.72.12,1.92.1.95.25,1.54.45,2.25.61,2.17,2.11,3.03,4.14,2.57,3.46-.78,5.53-3.19,6.72-6.61.2-.57.33-1.17.53-1.74.22-.65.58-1.18,1.27-1.28.93-.14,1.56.48,1.37,1.47-.81,4.35-2.58,8.09-6.49,10.1-3.15,1.61-6.43,1.87-9.57-.13-1.78-1.13-2.75-2.98-3.25-5.07-.89-3.74-.83-7.46.54-11.07C2.05,3.46,3.51,1.48,5.88.51c2.21-.9,5.28-.71,6.68,1.34.7,1.02,1.16,2.16,1.23,3.44.04.78-.37,1.42-.91,1.53-.5.1-1.03-.34-1.29-1.09-.12-.37-.22-.75-.35-1.11-.52-1.46-1.59-1.84-2.75-.93-1.43,1.13-2.16,2.78-2.59,4.54-.23.93-.44,1.63-.56,3.42Z"/>
</svg>