<?xml version="1.0" encoding="UTF-8"?>
<svg id="Layer_1" data-name="Layer 1" xmlns="http://www.w3.org/2000/svg" viewBox="0 0 323.33 380.42">
  <defs>
    <style>
      .cls-1 {
        fill: #eb6927;
        stroke-width: 0px;
      }
    </style>
  </defs>
  <path class="cls-1" d="M86.47,188.88c-.61,8.86-.51,19.62-.46,30.04.07,14.43,1.61,27.97,1.94,31.06,1.66,15.45,3.99,24.99,7.26,36.52,9.97,35.14,34.19,49.12,67.15,41.7,56.11-12.62,89.63-51.79,108.96-107.26,3.23-9.26,5.37-18.95,8.55-28.23,3.58-10.48,9.38-19.09,20.65-20.76,15.15-2.24,25.28,7.82,22.29,23.81-13.19,70.59-41.77,131.25-105.3,163.72-51.12,26.13-104.28,30.4-155.25-2.1-28.83-18.39-44.6-48.26-52.64-82.18-14.37-60.62-13.53-121.01,8.68-179.58C33.25,56.17,56.92,24.08,95.31,8.34c35.77-14.67,85.59-11.49,108.39,21.67,11.37,16.54,18.84,35,19.87,55.76.63,12.72-5.97,22.99-14.79,24.79-8.08,1.66-16.78-5.59-20.89-17.67-2.02-5.94-3.51-12.1-5.6-18.01-8.39-23.62-25.79-29.86-44.64-15.04-23.21,18.26-34.97,45.16-42.05,73.63-3.76,15.11-7.11,26.39-9.12,55.4Z"/>
</svg>