<?xml version="1.0" encoding="UTF-8"?>
<svg id="Layer_1" data-name="Layer 1" xmlns="http://www.w3.org/2000/svg" viewBox="0 0 512 512">
  <defs>
    <style>
      .cls-1 {
        fill: #eb6927;
      }

      .cls-1, .cls-2 {
        stroke-width: 0px;
      }

      .cls-2 {
        fill: #fff;
      }
    </style>
  </defs>
  <rect class="cls-2" width="512" height="512"/>
  <g>
    <path class="cls-1" d="M432.77,285.47c-12.05,13.75-32.97,16.67-42.98-.34-.58-.98-1.96-1.06-2.61-.13-.18.26-.37.52-.55.78-4.78,6.86-10.78,11.59-19.02,12.37-6.44.61-10.97-2.71-13.21-9.26-2.54-7.42-1.39-14.95-.89-22.47.19-2.91.8-5.81.73-8.7-.03-1.05,0-1.4-.55-2.44-.37-.69-1.47-1.6-2.85-1.35-1.19.22-2.56,2.4-2.61,2.47-2.22,4.07-4.09,7.47-5.61,11.88-2.17,6.33-3.84,12.86-5.72,19.3-.22.76-.68,1.97-1.06,2.67-1.75,3.28-4.08,4.66-7.01,4.13-3.32-.61-4.42-3.46-4.7-6.35-.55-5.79-.68-11.63-.87-17.45-.17-5.17-.08-10.18-.34-15.35-.15-2.78-1.09-2.98-1.87-2.97s-1.85.09-2.8,2.19c-2.2,6-4.29,11.75-6.03,17.91-1.39,4.95-2.1,10.11-3.2,15.15-.94,4.31-3.98,7.04-7.11,6.56-1.81-.28-2.96-1.29-4.39-4.23-.48-.98-1.78-1.19-2.53-.4-4.72,4.95-10.26,7.78-17.26,7.34-6.47-.41-10.81-4.37-12.92-12.97-.31-1.28-1.97-1.63-2.74-.57-.2.27-.4.53-.6.77-3.08,3.68-6.67,6.46-11.22,7.83-5.87,1.77-10.71-.01-14.93-4.4-.43-.45-.84-.94-1.26-1.39-.06-.06-.18-.06-.39-.12-1.79,4.02-3.39,8.17-5.42,12.07-3.04,5.84-6.96,10.88-12.96,13.54-1.29.57-2.66,1.04-4.04,1.28-11.26,1.9-17.65-5.23-15.58-17.35.6-3.51,1.34-6.99,1.92-10.5.68-4.15-.6-7.26-3.7-8.94-.83-.45-1.87-.1-2.22.77-.69,1.74-1.36,3.51-2.21,5.19-4.31,8.59-10.32,14.63-20.07,14.77-8.04.11-12.64-3.64-14.69-11.92-.06-.23-.11-.46-.16-.69-.27-1.24-1.81-1.64-2.67-.71-.32.35-.65.66-1.01.93-3.43,2.54-6.77,5.41-10.53,7.21-7.14,3.41-15.56-1.49-18.83-9.94-5.13-13.28-.34-31.14,10.51-39.62,8.81-6.89,16.43-6.13,22.73,2.39.7.95,2.17.76,2.65-.32.56-1.29,1.12-2.54,1.77-3.74,1.53-2.81,3.63-4.85,6.88-5.18,4.04-.42,6.04,1.52,5.43,5.83-.8,5.66-2.06,11.24-2.82,16.9-1.16,8.66-2.46,17.35-.99,26.14.78,4.66,2.89,6.23,6.82,4.11,2.75-1.48,5.58-3.78,7.18-6.51,2.6-4.42,4.51-8.92,2.97-15.05-3.24-12.86,2.37-24.57,13.11-28.9,2.95-1.19,6.57-1.46,9.72-.94,6.99,1.15,9.59,7.98,5.84,14.38-3.16,5.4-7.85,8.9-13.06,11.71h0c-1.18.64-1.05,2.37.21,2.83.77.28,1.51.54,2.26.79,6.92,2.28,9.72,6.31,8.82,13.97-.56,4.78-1.98,9.45-3,14.17-.3,1.36-.58,2.73-.83,4.1-1.14,6.41,2.84,6.4,6.55,4.91,3.77-1.51,6.11-4.86,8.03-8.48,4.73-8.91,6.84-18.65,7.69-28.73.83-9.78,4.72-17.88,11.84-23.91,7.34-6.22,16.4-8.03,23.21,1.8.68.99,2.19.83,2.67-.27.6-1.35,1.19-2.66,1.89-3.91,1.63-2.92,3.95-4.86,7.31-5.01,3.43-.15,5.23,1.55,4.92,5.22-.25,2.99-1.18,5.92-1.48,8.92-1.06,10.4-1.98,20.81-2.93,31.23-.05.53.1,1.07.15,1.61.77,8.31,4.93,8.39,10.36,4.34,5.35-3.98,7.54-10.33,8.15-17.06.7-7.74.82-15.54,1.33-23.3.24-3.66,2.05-6.54,4.87-8.56,3.06-2.19,6.63-.96,7.37,2.86.6,3.11.42,6.41.41,9.62v.11c0,1.64,2.19,2.16,2.93.7.9-1.76,1.85-3.43,3-4.93,2.2-2.89,5.28-5.43,8.45-6.98,5.26-2.56,9.95.29,10.7,6.46.58,4.83.85,9.7,1.07,14.05.08,1.63,2.3,2.03,2.95.54,1.29-2.95,2.77-6.21,4.46-9.35,1.78-3.29,4.26-6.36,6.99-8.8,6.96-6.25,15.34-2.85,16.06,6.81.61,8.14-.14,16.39-.18,24.59-.02,4.52-.05,9.07.34,13.57.28,3.32,1.75,4.04,4.62,2.74,6.92-3.13,10.76-9.27,13.23-16.42,1.1-3.18,1.31-6.73,1.86-10.12,1.52-9.41,5.1-17.52,12.84-22.87,8.56-5.91,20.69-2.71,24.95,6.45,2.35,5.04,1.63,9.72-2.22,13.54-5.74,5.68-12.59,9.33-19.96,11.8-2.11.71-2.4,1.86-2.29,3.76.61,10.38,10.72,16.04,20.06,11.22,5.54-2.85,9.44-7.4,11.6-13.48.68-1.91.52-4.23.44-6.35-.64-16.21,1.7-31.88,7.3-46.96,2.29-6.17,5.23-11.95,9.98-16.39,4.28-3.99,9.22-5.89,14.86-4.04,5.39,1.77,8.52,6.19,9.02,11.87.38,4.26-.3,8.86-1.45,13.01-3.77,13.67-12.24,23.97-22.22,32.83-3.25,2.89-4.4,5.75-3.51,9.96,1.12,5.25,1.73,10.66,3.2,15.79,1.74,6.06,4.44,6.86,9.63,3.63,5.99-3.73,8.89-9.78,10.89-16.52.36-1.22,1.23-3.37,1.36-3.49.98-1.67,2.82-2.29,4.38-1.54,1.53.73,1.9,2.64,1.67,3.82-2.06,10.6-6.19,20-15.52,25.41-3.11,1.8-6.77,2.91-10.29,3.4-6.42.89-12.47-3.62-15.43-10.73-.16-.38-.32-.76-.48-1.15-.44-1.05-1.83-1.28-2.59-.41ZM133.88,262.78c-.87,3.53-1.01,7.22-.4,10.8.29,1.7.62,3.28,1.15,4.77,1.94,5.43,6.63,6.81,11.07,3.49,1.38-1.03,2.7-2.37,3.6-3.87,4.93-8.22,5.46-17.08,2.25-26.03-2.07-5.77-7.91-6.79-12.09-2.44-1.27,1.32-2.06,2.49-3.11,4.56-.04.08-.11.24-.13.33-1.55,4.81-1.57,5.28-2.34,8.39ZM263.67,262.5s0-.06,0-.09c-.11-1.82-.12-3.65-.36-5.45-.74-5.61-3.57-9.47-7.24-10.04-3.46-.54-7.31,2.24-9.53,7.14-3.19,7.04-3.99,14.44-2.34,22.08.31,1.44.89,2.89,1.63,4.15,1.82,3.08,5.15,4.3,8.16,2.59,2.07-1.17,4.07-2.87,5.51-4.84,3.29-4.51,4.18-9.92,4.17-15.54ZM445.74,247.66c-.1,1.4,1.58,2.21,2.6,1.26,6.35-5.93,10.91-12.5,14.08-20.24,2.17-5.3,3.66-10.75,2.6-16.61-.73-4.04-3.57-5.78-6.88-3.75-1.98,1.22-3.85,3.24-4.94,5.39-5.28,10.4-6.6,21.76-7.46,33.96ZM399.88,262.54c-.29,1.19.86,2.24,2.02,1.83,4.97-1.73,10.43-5.19,13.01-8.28,2.36-2.83,2.78-5.79,1.11-7.85-1.61-1.99-4.94-2.37-7.49-.4-4.69,3.62-7.17,8.66-8.65,14.69ZM193.44,256.49c-.09,1.19,1.16,2.05,2.23,1.51,4.29-2.14,7.55-5.28,9.68-9.72.54-1.13.42-3.55-.32-4.23-.84-.78-2.92-.8-4.11-.26-3.95,1.8-7.09,7.37-7.48,12.7Z"/>
    <path class="cls-1" d="M52.3,256.13c-.17,2.42-.14,5.35-.12,8.19.02,3.94.44,7.63.53,8.47.45,4.22,1.09,6.82,1.98,9.96,2.72,9.59,9.33,13.4,18.32,11.38,15.31-3.44,24.45-14.13,29.72-29.26.88-2.53,1.47-5.17,2.33-7.7.98-2.86,2.56-5.21,5.63-5.66,4.13-.61,6.9,2.13,6.08,6.5-3.6,19.26-11.39,35.8-28.73,44.66-13.95,7.13-28.45,8.29-42.35-.57-7.86-5.02-12.17-13.17-14.36-22.42-3.92-16.54-3.69-33.01,2.37-48.99,4.08-10.76,10.54-19.52,21.01-23.81,9.76-4,23.35-3.14,29.57,5.91,3.1,4.51,5.14,9.55,5.42,15.21.17,3.47-1.63,6.27-4.03,6.76-2.21.45-4.58-1.53-5.7-4.82-.55-1.62-.96-3.3-1.53-4.91-2.29-6.44-7.04-8.15-12.18-4.1-6.33,4.98-9.54,12.32-11.47,20.09-1.03,4.12-1.94,7.2-2.49,15.11Z"/>
  </g>
</svg>